<?xml version="1.0" encoding="UTF-8" standalone="no"?>
<svg width="200px" height="59px" viewBox="0 0 200 59" version="1.1" xmlns="http://www.w3.org/2000/svg" xmlns:xlink="http://www.w3.org/1999/xlink">
    <!-- Generator: Sketch 40.3 (33839) - http://www.bohemiancoding.com/sketch -->
    <title>Logo </title>
    <desc>Created with Sketch.</desc>
    <defs>
        <polygon id="path-1" points="0 58.8235294 199.237916 58.8235294 199.237916 0.748663102 0 0.748663102"></polygon>
    </defs>
    <g id="Symbols" stroke="none" stroke-width="1" fill="none" fill-rule="evenodd">
        <g id="Global-Nav" transform="translate(-92.000000, -27.000000)">
            <g id="Logo-" transform="translate(92.000000, 27.000000)">
                <path d="M94.4209813,5.98930481 L94.8496804,5.98930481 C95.06403,6.09625668 95.1712048,6.09625668 95.1712048,6.31016043 C95.1712048,6.52406417 95.1712048,6.63101604 94.9568552,6.84491979 C88.0976693,16.5775401 81.3456581,26.4171123 74.2721226,36.2566845 L85.2039502,36.1497326 C90.0268153,36.1497326 91.5272622,35.4010695 92.59901,34.1176471 C93.0277092,33.5828877 93.4564083,32.4064171 93.5635831,31.8716578 C93.6707578,31.4438503 93.9922822,31.1229947 93.9922822,31.1229947 L94.3138065,31.1229947 C94.3138065,31.1229947 93.5635831,35.9358289 93.3492335,37.0053476 C93.0277092,38.0748663 93.0277092,38.1818182 91.9559614,38.1818182 L69.5564323,38.1818182 C69.0205584,38.1818182 68.8062088,37.8609626 68.8062088,37.6470588 C68.8062088,37.4331551 68.9133836,37.2192513 69.4492575,36.4705882 C74.593647,29.197861 80.3810851,22.1390374 85.7398241,15.0802139 C87.3474458,12.8342246 89.0622423,10.5882353 90.5626892,8.34224599 C90.669864,8.12834225 90.8842136,8.02139037 90.9913883,7.80748663 L79.4165121,7.80748663 C78.0232399,7.80748663 76.9514921,7.9144385 75.9869191,8.02139037 C75.2366957,8.12834225 74.4864722,8.34224599 73.9505983,8.6631016 C72.3429766,9.41176471 71.2712288,11.9786096 71.2712288,11.9786096 L70.7353549,12.7272727 C70.7353549,12.7272727 70.4138306,12.513369 70.4138306,12.1925134 C70.4138306,11.657754 71.0568792,7.80748663 71.3784036,6.52406417 C71.4855784,5.98930481 71.8071027,5.77540107 71.8071027,5.77540107 C71.8071027,5.77540107 72.128627,5.98930481 73.4147244,5.98930481 L73.5218992,5.98930481 L81.7743572,5.98930481 L94.4209813,5.98930481 Z" id="Fill-1" fill="#092240"></path>
                <path d="M63.6618194,37.2192513 C62.8044212,36.8983957 61.6254986,36.2566845 60.0178769,32.6203209 L48.5501754,5.02673797 C48.3358258,4.70588235 48.2286511,5.13368984 48.2286511,5.13368984 L37.511173,33.2620321 C36.7609496,35.5080214 35.9035513,37.2192513 33.7600557,37.4331551 C33.4385314,37.540107 32.0452593,37.540107 32.0452593,37.540107 L32.0452593,37.7540107 C32.0452593,37.7540107 32.3667836,38.0748663 32.9026575,38.0748663 L37.9398722,38.0748663 L41.3694651,38.0748663 C41.7981643,38.0748663 42.0125138,37.7540107 42.0125138,37.7540107 L42.0125138,37.6470588 L41.1551156,37.540107 C40.4048921,37.540107 39.4403191,37.1122995 39.4403191,36.2566845 C39.4403191,35.4010695 39.6546687,34.3315508 40.0833678,33.2620321 L42.9770868,25.026738 L53.0515162,25.1336898 L57.3385074,36.3636364 C57.6600317,37.1122995 57.3385074,37.4331551 57.016983,37.540107 C56.9098083,37.6470588 56.6954587,37.6470588 56.6954587,37.8609626 C56.6954587,38.1818182 57.1241578,38.1818182 57.9815561,38.1818182 L64.9479168,38.1818182 C65.4837907,38.1818182 65.9124898,37.8609626 65.9124898,37.8609626 L65.805315,37.6470588 C65.805315,37.540107 64.4120429,37.4331551 63.6618194,37.2192513 L63.6618194,37.2192513 Z M43.405786,23.4224599 L47.9071267,10.5882353 L52.5156423,23.4224599 L43.405786,23.4224599 Z" id="Fill-3" fill="#092240"></path>
                <path d="M128.502561,37.2192513 C127.645163,36.8983957 126.359066,36.2566845 124.858619,32.6203209 L113.390917,5.02673797 C113.283743,4.70588235 113.069393,5.13368984 113.069393,5.13368984 L102.351915,33.2620321 C101.601692,35.5080214 100.637119,37.2192513 98.6007977,37.4331551 C98.2792734,37.540107 96.8860012,37.540107 96.8860012,37.540107 L96.8860012,37.7540107 C96.8860012,37.7540107 97.2075256,38.0748663 97.7433995,38.0748663 L102.780614,38.0748663 L106.210207,38.0748663 C106.638906,38.0748663 106.853256,37.7540107 106.853256,37.7540107 L106.853256,37.6470588 L105.995858,37.540107 C105.245634,37.540107 104.281061,37.1122995 104.281061,36.2566845 C104.281061,35.4010695 104.495411,34.3315508 104.92411,33.2620321 L107.817829,25.026738 L117.892258,25.1336898 L122.179249,36.3636364 C122.393599,37.1122995 122.179249,37.4331551 121.857725,37.540107 C121.643375,37.6470588 121.536201,37.6470588 121.536201,37.8609626 C121.536201,38.1818182 121.9649,38.1818182 122.822298,38.1818182 L129.788659,38.1818182 C130.324533,38.1818182 130.646057,37.8609626 130.646057,37.8609626 L130.646057,37.6470588 C130.753232,37.540107 129.252785,37.4331551 128.502561,37.2192513 L128.502561,37.2192513 Z M108.246528,23.4224599 L112.747869,10.5882353 L117.356384,23.4224599 L108.246528,23.4224599 Z" id="Fill-5" fill="#092240"></path>
                <path d="M0.964573021,38.0748663 C0.535873901,38.0748663 0.32152434,37.6470588 0.32152434,37.6470588 L0.32152434,37.4331551 C0.32152434,37.4331551 1.50044692,37.3262032 1.92914604,37.2192513 C2.78654428,37.0053476 3.32241818,36.0427807 3.53676774,34.7593583 C3.7511173,32.9411765 3.7511173,29.5187166 3.7511173,25.4545455 L3.7511173,17.8609626 C3.7511173,11.1229947 3.7511173,5.34759358 3.64394252,3.95721925 C3.53676774,2.56684492 3.2152434,1.81818182 1.82197126,1.4973262 C1.50044692,1.4973262 0.32152434,1.39037433 0.32152434,1.39037433 L0,1.17647059 L0.10717478,0.748663102 C0.10717478,0.748663102 5.68026335,0.962566845 5.89461291,0.962566845 C6.10896247,0.962566845 11.1461771,0.748663102 11.1461771,0.748663102 L11.1461771,1.17647059 L10.8246528,1.39037433 C10.8246528,1.39037433 9.86007977,1.4973262 9.43138065,1.4973262 C8.14528329,1.71122995 7.82375895,2.45989305 7.71658417,3.95721925 C7.60940939,5.34759358 7.60940939,11.1229947 7.60940939,17.8609626 L7.60940939,25.5614973 C7.60940939,31.8716578 7.82375895,34.2245989 8.57398241,35.0802139 C9.32420587,35.9358289 14.2542458,36.1497326 19.1842856,36.2566845 L20.7919073,36.2566845 C25.7219472,36.2566845 26.9008698,35.4010695 27.7582681,34.1176471 C28.1869672,33.5828877 28.6156663,32.513369 28.7228411,31.8716578 C28.8300159,31.4438503 29.1515402,31.2299465 29.1515402,31.2299465 L29.6874141,31.2299465 C29.6874141,31.2299465 28.9371906,36.0427807 28.6156663,37.1122995 C28.4013167,38.0748663 28.294142,38.1818182 27.2223942,38.1818182 L0.964573021,38.1818182 L0.964573021,38.0748663 Z" id="Fill-7" fill="#092240"></path>
                <path d="M164.620462,37.3262032 C163.548714,37.2192513 161.726743,36.684492 159.368898,34.2245989 C156.903878,31.5508021 154.010159,27.8074866 150.473391,23.315508 C154.331683,19.7860963 155.724956,16.5775401 155.724956,13.4759358 C155.724956,10.5882353 153.795809,8.44919786 152.724062,7.70053476 C150.473391,6.09625668 146.1864,5.88235294 143.507031,5.88235294 C142.220933,5.88235294 138.898515,5.98930481 138.469816,5.98930481 C138.255466,5.98930481 133.003902,5.88235294 133.003902,5.88235294 L133.003902,6.20320856 C133.003902,6.20320856 133.111077,6.52406417 133.325426,6.52406417 C133.646951,6.52406417 134.397174,6.63101604 134.718699,6.63101604 C136.111971,6.95187166 136.433495,7.59358289 136.54067,9.09090909 C136.647845,10.4812834 136.647845,11.657754 136.647845,18.2887701 L136.647845,25.7754011 C136.647845,29.9465241 136.647845,33.2620321 136.433495,35.0802139 C136.219146,36.2566845 136.004796,37.2192513 135.147398,37.4331551 C134.825873,37.540107 133.539776,37.540107 133.539776,37.540107 L133.539776,37.8609626 C133.539776,37.8609626 133.754126,38.1818182 134.182825,38.1818182 L138.148292,38.1818182 L143.399856,38.1818182 C143.828555,38.1818182 144.042905,37.8609626 144.042905,37.8609626 L143.93573,37.540107 C143.93573,37.540107 142.328108,37.4331551 141.792234,37.4331551 C140.506137,37.2192513 140.184612,36.2566845 140.077438,35.0802139 C139.970263,33.2620321 139.970263,29.9465241 139.970263,25.7754011 L139.970263,24.8128342 C139.970263,24.5989305 140.077438,24.4919786 140.291787,24.4919786 L146.936624,24.5989305 C147.258148,24.5989305 147.258148,24.7058824 147.472497,24.9197861 C148.329896,25.9893048 150.366217,28.8770053 152.081013,31.2299465 C154.546033,34.4385027 156.04648,36.4705882 157.761276,37.540107 C158.940199,38.0748663 160.011947,38.2887701 162.369792,38.2887701 L165.477861,38.2887701 C166.228084,38.2887701 166.442434,37.9679144 166.442434,37.9679144 L166.228084,37.6470588 C166.442434,37.540107 165.477861,37.540107 164.620462,37.3262032 M149.508818,22.3529412 C148.544245,23.1016043 145.972051,23.2085561 144.900303,23.2085561 C143.078331,23.2085561 141.149185,22.8877005 140.506137,22.459893 C140.291787,22.3529412 140.184612,22.1390374 140.184612,21.9251337 L140.184612,8.02139037 C140.184612,7.80748663 140.291787,7.59358289 140.506137,7.48663102 C140.934836,7.37967914 142.113758,7.27272727 143.399856,7.27272727 C148.008371,7.27272727 152.188188,10.4812834 152.188188,15.7219251 C152.081013,19.0374332 151.009265,21.2834225 149.508818,22.3529412" id="Fill-9" fill="#092240"></path>
                <g id="Group-13">
                    <mask id="mask-2" fill="white">
                        <use xlink:href="#path-1"></use>
                    </mask>
                    <g id="Clip-12"></g>
                    <path d="M182.411476,38.0748663 C187.66304,38.0748663 191.414157,36.8983957 195.165275,33.0481283 C195.593974,32.6203209 196.022673,32.0855615 196.344197,31.4438503 C196.344197,31.4438503 197.52312,29.6256684 197.951819,28.5561497 C201.917286,18.6096257 196.558547,11.657754 195.379624,10.4812834 C191.199808,6.52406417 186.698467,6.09625668 182.411476,5.88235294 C182.197126,5.88235294 169.550502,5.77540107 169.550502,5.77540107 L169.550502,6.20320856 C169.550502,6.20320856 169.657677,6.4171123 169.872027,6.4171123 C169.979201,6.4171123 170.193551,6.4171123 170.4079,6.52406417 L170.515075,6.52406417 C171.050949,6.52406417 171.479648,6.52406417 171.693998,6.63101604 C171.801173,6.73796791 172.015522,6.73796791 172.015522,6.73796791 L172.122697,6.73796791 C172.229872,6.84491979 172.337046,6.84491979 172.444221,6.84491979 C172.551396,6.95187166 172.658571,6.95187166 172.765746,7.05882353 L172.980095,7.27272727 L173.08727,7.37967914 L173.08727,7.48663102 C173.408794,7.80748663 173.408794,8.34224599 173.408794,8.98395722 C173.515969,10.3743316 173.515969,11.5508021 173.515969,18.1818182 L173.515969,20.4278075 L173.515969,23.315508 L173.515969,25.5614973 C173.515969,32.0855615 173.515969,33.368984 173.408794,34.6524064 C173.408794,35.4010695 173.301619,35.828877 173.08727,36.2566845 L173.08727,36.3636364 C173.08727,36.4705882 172.980095,36.4705882 172.980095,36.4705882 C172.87292,36.5775401 172.87292,36.5775401 172.765746,36.684492 C172.658571,36.7914439 172.658571,36.7914439 172.444221,36.8983957 C172.337046,37.0053476 172.229872,37.0053476 172.122697,37.1122995 L172.015522,37.1122995 C171.908347,37.2192513 171.801173,37.2192513 171.693998,37.2192513 C171.479648,37.3262032 170.943774,37.3262032 170.515075,37.3262032 L170.4079,37.3262032 L169.872027,37.3262032 C169.764852,37.3262032 169.657677,37.6470588 169.657677,37.6470588 L169.657677,37.9679144 L182.411476,37.9679144 L182.411476,38.0748663 Z M183.376049,36.5775401 C181.446903,36.684492 178.767533,36.4705882 178.124485,36.4705882 L177.159912,36.1497326 C177.052737,35.9358289 176.945562,35.828877 176.945562,35.4010695 C176.838387,34.0106952 176.838387,29.6256684 176.838387,26.4171123 L176.838387,23.5294118 L176.838387,22.8877005 L176.838387,21.0695187 L176.838387,20.5347594 L176.838387,17.540107 C176.838387,14.3315508 176.838387,9.94652406 176.945562,8.55614973 C176.945562,8.23529412 177.052737,8.02139037 177.159912,7.80748663 L178.124485,7.48663102 C178.660358,7.37967914 180.053631,7.37967914 180.160805,7.37967914 C181.232553,7.27272727 181.982777,7.27272727 183.268874,7.48663102 C184.876496,7.70053476 185.948244,8.02139037 185.948244,8.02139037 C187.127166,8.34224599 187.555865,8.55614973 188.520438,9.19786096 C192.914604,11.657754 195.701149,15.5080214 195.701149,22.2459893 C195.808323,28.0213904 193.986352,32.4064171 189.91371,34.7593583 C187.984564,35.828877 186.269768,36.4705882 183.376049,36.5775401 L183.376049,36.5775401 Z" id="Fill-11" fill="#092240" mask="url(#mask-2)"></path>
                </g>
                <path d="M193.450478,58.2887701 L194.200702,58.2887701 L194.307876,50.5882353 L196.987246,50.5882353 L196.987246,49.8395722 L190.771109,49.8395722 L190.771109,50.5882353 L193.450478,50.5882353 L193.450478,58.2887701 Z M178.231659,58.2887701 L178.981883,58.2887701 L178.981883,51.0160428 L183.590398,58.2887701 L184.554971,58.2887701 L184.554971,49.8395722 L183.804748,49.8395722 L183.804748,57.2192513 L183.697573,57.2192513 L179.089058,49.8395722 L178.231659,49.8395722 L178.231659,58.2887701 L178.231659,58.2887701 Z M171.372473,58.2887701 L171.372473,57.6470588 L166.978307,57.6470588 L166.978307,54.3315508 L171.050949,54.3315508 L171.050949,53.6898396 L166.978307,53.6898396 L166.978307,50.5882353 L171.265299,50.5882353 L171.265299,49.8395722 L166.228084,49.8395722 L166.228084,58.2887701 L171.372473,58.2887701 L171.372473,58.2887701 Z M150.90209,58.2887701 L150.90209,50.5882353 L154.117334,58.2887701 L154.867557,58.2887701 L158.082801,50.4812834 L158.082801,58.2887701 L158.833024,58.2887701 L158.833024,49.8395722 L157.654102,49.8395722 L154.331683,57.2192513 L151.223615,49.8395722 L150.044692,49.8395722 L150.044692,58.2887701 L150.90209,58.2887701 Z M143.185506,58.2887701 L143.185506,57.6470588 L138.79134,57.6470588 L138.79134,54.3315508 L142.971157,54.3315508 L142.971157,53.6898396 L138.79134,53.6898396 L138.79134,50.5882353 L143.078331,50.5882353 L143.078331,49.8395722 L138.041117,49.8395722 L138.041117,58.2887701 L143.185506,58.2887701 L143.185506,58.2887701 Z M127.966687,54.0106952 L127.966687,54.7593583 L130.003008,54.7593583 L130.003008,57.4331551 C129.467134,57.6470588 128.824086,57.7540107 128.181037,57.7540107 C125.930367,57.7540107 125.072968,56.2566845 125.072968,54.0106952 C125.072968,52.2994652 125.823192,50.3743316 127.859513,50.3743316 C128.824086,50.3743316 129.788659,50.9090909 129.895834,51.9786096 L130.753232,51.9786096 C130.646057,50.4812834 129.14561,49.7326203 127.859513,49.7326203 C125.394493,49.7326203 124.21557,51.9786096 124.21557,54.1176471 C124.21557,56.7914439 125.501668,58.5026738 127.859513,58.5026738 C128.931261,58.5026738 129.895834,58.3957219 130.860407,57.9679144 L130.860407,54.0106952 L127.966687,54.0106952 L127.966687,54.0106952 Z M112.211995,58.2887701 L113.069393,56.0427807 L117.249209,56.0427807 L118.106608,58.2887701 L118.964006,58.2887701 L115.641588,49.8395722 L114.78419,49.8395722 L111.461771,58.2887701 L112.211995,58.2887701 Z M113.283743,55.4010695 L115.105714,50.5882353 L116.927685,55.4010695 L113.283743,55.4010695 Z M98.9223221,58.2887701 L99.6725455,58.2887701 L99.6725455,51.0160428 L104.281061,58.2887701 L105.245634,58.2887701 L105.245634,49.8395722 L104.495411,49.8395722 L104.495411,57.2192513 L104.388236,57.2192513 L99.7797203,49.8395722 L98.9223221,49.8395722 L98.9223221,58.2887701 Z M85.9541737,58.2887701 L86.9187467,56.0427807 L91.0985631,56.0427807 L92.0631361,58.2887701 L92.8133596,58.2887701 L89.4909414,49.8395722 L88.6335432,49.8395722 L85.311125,58.2887701 L85.9541737,58.2887701 Z M87.0259215,55.4010695 L88.8478927,50.5882353 L90.669864,55.4010695 L87.0259215,55.4010695 Z M70.9497045,58.2887701 L70.9497045,50.5882353 L74.1649479,58.2887701 L74.9151713,58.2887701 L78.1304147,50.4812834 L78.1304147,58.2887701 L78.8806382,58.2887701 L78.8806382,49.8395722 L77.7017156,49.8395722 L74.3792974,57.2192513 L71.2712288,49.8395722 L70.0923062,49.8395722 L70.0923062,58.2887701 L70.9497045,58.2887701 Z M52.1941179,58.2887701 L52.9443414,58.2887701 L52.9443414,50.5882353 L55.6237109,50.5882353 L55.6237109,49.8395722 L49.5147484,49.8395722 L49.5147484,50.5882353 L52.1941179,50.5882353 L52.1941179,58.2887701 Z M43.7273103,58.2887701 L43.7273103,57.6470588 L39.3331443,57.6470588 L39.3331443,54.3315508 L43.5129607,54.3315508 L43.5129607,53.6898396 L39.3331443,53.6898396 L39.3331443,50.5882353 L43.6201355,50.5882353 L43.6201355,49.8395722 L38.5829208,49.8395722 L38.5829208,58.2887701 L43.7273103,58.2887701 L43.7273103,58.2887701 Z M31.7237349,56.0427807 C31.7237349,53.1550802 27.0080446,54.2245989 27.0080446,51.8716578 C27.0080446,50.9090909 28.0797924,50.4812834 28.9371906,50.4812834 C29.7945889,50.4812834 30.7591619,50.802139 30.7591619,51.7647059 L31.5093854,51.7647059 C31.4022106,50.1604278 29.9017637,49.7326203 28.8300159,49.7326203 C27.4367437,49.7326203 26.1506464,50.4812834 26.1506464,51.9786096 C26.1506464,53.7967914 28.1869672,54.2245989 29.5802393,54.6524064 C30.3304628,54.8663102 30.9735115,55.2941176 30.9735115,56.0427807 C30.9735115,57.1122995 29.9017637,57.6470588 28.9371906,57.6470588 C27.8654428,57.6470588 26.9008698,57.3262032 26.9008698,56.0427807 L26.0434716,56.0427807 C26.1506464,57.4331551 27.2223942,58.3957219 28.6156663,58.3957219 C30.1161132,58.5026738 31.7237349,57.9679144 31.7237349,56.0427807 L31.7237349,56.0427807 Z M19.50581,56.0427807 C19.50581,53.1550802 14.6829449,54.2245989 14.6829449,51.8716578 C14.6829449,50.9090909 15.8618675,50.4812834 16.7192657,50.4812834 C17.5766639,50.4812834 18.541237,50.802139 18.541237,51.7647059 L19.2914604,51.7647059 C19.0771109,50.1604278 17.6838387,49.7326203 16.6120909,49.7326203 C15.2188188,49.7326203 13.9327214,50.4812834 13.9327214,51.9786096 C13.9327214,53.7967914 15.9690422,54.2245989 17.3623144,54.6524064 C18.1125378,54.8663102 18.7555865,55.2941176 18.7555865,56.0427807 C18.7555865,57.1122995 17.6838387,57.6470588 16.7192657,57.6470588 C15.5403431,57.6470588 14.6829449,57.3262032 14.6829449,56.0427807 L13.8255466,56.0427807 C13.9327214,57.4331551 15.0044692,58.3957219 16.2905666,58.3957219 C18.0053631,58.5026738 19.50581,57.9679144 19.50581,56.0427807 L19.50581,56.0427807 Z M1.50044692,58.2887701 L2.35784516,56.0427807 L6.53766159,56.0427807 L7.50223461,58.2887701 L8.25245807,58.2887701 L4.93003989,49.8395722 L4.07264165,49.8395722 L0.750223461,58.2887701 L1.50044692,58.2887701 Z M2.6793695,55.4010695 L4.50134077,50.5882353 L6.32331203,55.4010695 L2.6793695,55.4010695 Z" id="Fill-14" fill="#9B9B9B"></path>
            </g>
        </g>
    </g>
</svg>